<mxfile host="Electron" modified="2023-05-20T22:03:14.065Z" agent="Mozilla/5.0 (Macintosh; Intel Mac OS X 10_15_7) AppleWebKit/537.36 (KHTML, like Gecko) draw.io/21.2.8 Chrome/112.0.5615.165 Electron/24.2.0 Safari/537.36" etag="YU5lfZWSYyU-OXK-4dS7" version="21.2.8" type="device">
  <diagram name="Page-1" id="5f0bae14-7c28-e335-631c-24af17079c00">
    <mxGraphModel dx="3165" dy="2723" grid="1" gridSize="10" guides="1" tooltips="1" connect="1" arrows="1" fold="1" page="1" pageScale="1" pageWidth="1100" pageHeight="850" background="none" math="0" shadow="0">
      <root>
        <mxCell id="0" />
        <mxCell id="1" parent="0" />
        <mxCell id="R0MQDh1Ny6S9BesH9uWH-9" value="&lt;font style=&quot;font-size: 18px;&quot;&gt;&amp;lt;&amp;lt;device&amp;gt;&amp;gt;&lt;br&gt;:Front-end Server&lt;/font&gt;" style="verticalAlign=top;align=left;spacingTop=8;spacingLeft=2;spacingRight=12;shape=cube;size=10;direction=south;fontStyle=4;html=1;rounded=0;shadow=0;comic=0;labelBackgroundColor=none;strokeWidth=1;fontFamily=Verdana;fontSize=12" parent="1" vertex="1">
          <mxGeometry x="1010" y="-490" width="460" height="320" as="geometry" />
        </mxCell>
        <mxCell id="R0MQDh1Ny6S9BesH9uWH-6" value="&lt;font style=&quot;font-size: 18px;&quot;&gt;&amp;lt;&amp;lt;device&amp;gt;&amp;gt;&lt;br&gt;:Back-end Server&lt;/font&gt;" style="verticalAlign=top;align=left;spacingTop=8;spacingLeft=2;spacingRight=12;shape=cube;size=10;direction=south;fontStyle=4;html=1;rounded=0;shadow=0;comic=0;labelBackgroundColor=none;strokeWidth=1;fontFamily=Verdana;fontSize=12" parent="1" vertex="1">
          <mxGeometry x="820" y="-10" width="830" height="340" as="geometry" />
        </mxCell>
        <mxCell id="39150e848f15840c-2" value="&lt;font style=&quot;font-size: 18px;&quot;&gt;&amp;lt;&amp;lt;device&amp;gt;&amp;gt;&lt;br&gt;:DB Server&lt;/font&gt;" style="verticalAlign=top;align=left;spacingTop=8;spacingLeft=2;spacingRight=12;shape=cube;size=10;direction=south;fontStyle=4;html=1;rounded=0;shadow=0;comic=0;labelBackgroundColor=none;strokeWidth=1;fontFamily=Verdana;fontSize=12" parent="1" vertex="1">
          <mxGeometry x="1860" y="50" width="330" height="220" as="geometry" />
        </mxCell>
        <mxCell id="39150e848f15840c-8" value="&lt;font style=&quot;font-size: 18px;&quot;&gt;«artifact»&lt;br&gt;&lt;b&gt;MySQL&lt;/b&gt;&lt;/font&gt;" style="html=1;rounded=0;shadow=0;comic=0;labelBackgroundColor=none;strokeWidth=1;fontFamily=Verdana;fontSize=12;align=center;" parent="1" vertex="1">
          <mxGeometry x="1920" y="115" width="210" height="115" as="geometry" />
        </mxCell>
        <mxCell id="R0MQDh1Ny6S9BesH9uWH-2" value="&lt;font style=&quot;font-size: 18px;&quot;&gt;&amp;lt;&amp;lt;execution environment&amp;gt;&amp;gt;&lt;br&gt;:Application Server&lt;/font&gt;" style="verticalAlign=top;align=left;spacingTop=8;spacingLeft=2;spacingRight=12;shape=cube;size=10;direction=south;fontStyle=4;html=1;rounded=0;shadow=0;comic=0;labelBackgroundColor=none;strokeWidth=1;fontFamily=Verdana;fontSize=12" parent="1" vertex="1">
          <mxGeometry x="890" y="70" width="330" height="220" as="geometry" />
        </mxCell>
        <mxCell id="R0MQDh1Ny6S9BesH9uWH-3" value="&lt;font style=&quot;font-size: 18px;&quot;&gt;«artifact»&lt;br&gt;&lt;b&gt;Nest.js, Prisma&lt;/b&gt;&lt;/font&gt;" style="html=1;rounded=0;shadow=0;comic=0;labelBackgroundColor=none;strokeWidth=1;fontFamily=Verdana;fontSize=12;align=center;" parent="1" vertex="1">
          <mxGeometry x="950" y="135" width="210" height="115" as="geometry" />
        </mxCell>
        <mxCell id="R0MQDh1Ny6S9BesH9uWH-4" value="&lt;font style=&quot;font-size: 18px;&quot;&gt;&amp;lt;&amp;lt;execution environment&amp;gt;&amp;gt;&lt;br&gt;:Code Runner&lt;/font&gt;" style="verticalAlign=top;align=left;spacingTop=8;spacingLeft=2;spacingRight=12;shape=cube;size=10;direction=south;fontStyle=4;html=1;rounded=0;shadow=0;comic=0;labelBackgroundColor=none;strokeWidth=1;fontFamily=Verdana;fontSize=12" parent="1" vertex="1">
          <mxGeometry x="1250" y="70" width="330" height="220" as="geometry" />
        </mxCell>
        <mxCell id="R0MQDh1Ny6S9BesH9uWH-5" value="&lt;font style=&quot;font-size: 18px;&quot;&gt;«artifact»&lt;br&gt;&lt;b&gt;Docker&lt;/b&gt;&lt;/font&gt;" style="html=1;rounded=0;shadow=0;comic=0;labelBackgroundColor=none;strokeWidth=1;fontFamily=Verdana;fontSize=12;align=center;" parent="1" vertex="1">
          <mxGeometry x="1310" y="135" width="210" height="115" as="geometry" />
        </mxCell>
        <mxCell id="R0MQDh1Ny6S9BesH9uWH-7" value="&lt;font style=&quot;font-size: 18px;&quot;&gt;&amp;lt;&amp;lt;execution environment&amp;gt;&amp;gt;&lt;br&gt;:Application Server&lt;/font&gt;" style="verticalAlign=top;align=left;spacingTop=8;spacingLeft=2;spacingRight=12;shape=cube;size=10;direction=south;fontStyle=4;html=1;rounded=0;shadow=0;comic=0;labelBackgroundColor=none;strokeWidth=1;fontFamily=Verdana;fontSize=12" parent="1" vertex="1">
          <mxGeometry x="1075" y="-420" width="330" height="220" as="geometry" />
        </mxCell>
        <mxCell id="R0MQDh1Ny6S9BesH9uWH-8" value="&lt;font style=&quot;font-size: 18px;&quot;&gt;«artifact»&lt;br&gt;&lt;b&gt;React, Redux&lt;/b&gt;&lt;/font&gt;" style="html=1;rounded=0;shadow=0;comic=0;labelBackgroundColor=none;strokeWidth=1;fontFamily=Verdana;fontSize=12;align=center;" parent="1" vertex="1">
          <mxGeometry x="1135" y="-355" width="210" height="115" as="geometry" />
        </mxCell>
        <mxCell id="R0MQDh1Ny6S9BesH9uWH-12" value="&lt;font style=&quot;font-size: 18px;&quot;&gt;&amp;lt;&amp;lt;device&amp;gt;&amp;gt;&lt;br&gt;:Client&lt;/font&gt;" style="verticalAlign=top;align=left;spacingTop=8;spacingLeft=2;spacingRight=12;shape=cube;size=10;direction=south;fontStyle=4;html=1;rounded=0;shadow=0;comic=0;labelBackgroundColor=none;strokeWidth=1;fontFamily=Verdana;fontSize=12" parent="1" vertex="1">
          <mxGeometry x="470" y="-440" width="330" height="220" as="geometry" />
        </mxCell>
        <mxCell id="R0MQDh1Ny6S9BesH9uWH-13" value="&lt;font style=&quot;font-size: 18px;&quot;&gt;«Web browser»&lt;/font&gt;" style="html=1;rounded=0;shadow=0;comic=0;labelBackgroundColor=none;strokeWidth=1;fontFamily=Verdana;fontSize=12;align=center;" parent="1" vertex="1">
          <mxGeometry x="530" y="-375" width="210" height="115" as="geometry" />
        </mxCell>
        <mxCell id="R0MQDh1Ny6S9BesH9uWH-15" value="" style="endArrow=none;html=1;rounded=0;" parent="1" source="R0MQDh1Ny6S9BesH9uWH-12" target="R0MQDh1Ny6S9BesH9uWH-9" edge="1">
          <mxGeometry width="50" height="50" relative="1" as="geometry">
            <mxPoint x="1040" y="50" as="sourcePoint" />
            <mxPoint x="1090" as="targetPoint" />
          </mxGeometry>
        </mxCell>
        <mxCell id="R0MQDh1Ny6S9BesH9uWH-16" value="" style="endArrow=none;html=1;rounded=0;" parent="1" source="39150e848f15840c-2" target="R0MQDh1Ny6S9BesH9uWH-6" edge="1">
          <mxGeometry width="50" height="50" relative="1" as="geometry">
            <mxPoint x="1040" y="50" as="sourcePoint" />
            <mxPoint x="1090" as="targetPoint" />
          </mxGeometry>
        </mxCell>
        <mxCell id="R0MQDh1Ny6S9BesH9uWH-17" value="" style="endArrow=none;html=1;rounded=0;" parent="1" source="R0MQDh1Ny6S9BesH9uWH-6" target="R0MQDh1Ny6S9BesH9uWH-9" edge="1">
          <mxGeometry width="50" height="50" relative="1" as="geometry">
            <mxPoint x="1040" y="50" as="sourcePoint" />
            <mxPoint x="1090" as="targetPoint" />
          </mxGeometry>
        </mxCell>
        <mxCell id="JSlKEX1isEYKUE3vdLqV-1" value="" style="endArrow=none;html=1;rounded=0;" edge="1" parent="1" source="R0MQDh1Ny6S9BesH9uWH-2" target="R0MQDh1Ny6S9BesH9uWH-4">
          <mxGeometry width="50" height="50" relative="1" as="geometry">
            <mxPoint x="1340" y="110" as="sourcePoint" />
            <mxPoint x="1390" y="60" as="targetPoint" />
          </mxGeometry>
        </mxCell>
      </root>
    </mxGraphModel>
  </diagram>
</mxfile>
